<svg xmlns="http://www.w3.org/2000/svg" viewBox="0 0 820 230" font-family="Arial, sans-serif" font-size="11">
  <rect width="820" height="230" fill="#f8f9fa" rx="8"/>

  <!-- GCP -->
  <rect x="15" y="55" width="150" height="130" rx="8" fill="#e8eaf6" stroke="#4285f4" stroke-width="2"/>
  <text x="90" y="80" text-anchor="middle" font-weight="bold" fill="#4285f4">Google Cloud</text>
  <rect x="30" y="90" width="120" height="35" rx="4" fill="#fff" stroke="#c5cae9"/>
  <text x="90" y="112" text-anchor="middle" fill="#555" font-size="10">Interconnect</text>
  <text x="90" y="150" text-anchor="middle" fill="#555" font-size="10">VPC : 10.3.0.0/16</text>
  <text x="90" y="170" text-anchor="middle" fill="#555" font-size="9">Cloud Router</text>

  <!-- Provider -->
  <rect x="240" y="65" width="150" height="100" rx="6" fill="#f3e5f5" stroke="#6a1b9a" stroke-width="1.5"/>
  <text x="315" y="90" text-anchor="middle" font-weight="bold" fill="#6a1b9a">Fournisseur</text>
  <text x="315" y="110" text-anchor="middle" fill="#555" font-size="10">Megaport / Equinix</text>
  <text x="315" y="130" text-anchor="middle" fill="#555" font-size="10">VXC ou Fabric</text>
  <text x="315" y="148" text-anchor="middle" fill="#555" font-size="9">Pont par clé de service</text>

  <!-- OVHcloud PoP -->
  <rect x="465" y="65" width="130" height="100" rx="6" fill="#e8f5e9" stroke="#2e7d32" stroke-width="1.5"/>
  <text x="530" y="90" text-anchor="middle" font-weight="bold" fill="#2e7d32">PoP OVHcloud</text>
  <text x="530" y="115" text-anchor="middle" fill="#555" font-size="10">OCC Provider</text>
  <text x="530" y="135" text-anchor="middle" fill="#555" font-size="10">Peering BGP</text>
  <text x="530" y="150" text-anchor="middle" fill="#555" font-size="9">ASN variable selon le PoP</text>

  <!-- vRack -->
  <rect x="660" y="55" width="140" height="130" rx="8" fill="#e8f5e9" stroke="#2e7d32" stroke-width="2"/>
  <text x="730" y="85" text-anchor="middle" font-weight="bold" fill="#2e7d32">vRack</text>
  <text x="730" y="110" text-anchor="middle" fill="#555" font-size="10">172.16.0.0/16</text>
  <text x="730" y="130" text-anchor="middle" fill="#555" font-size="10">Bare Metal</text>
  <text x="730" y="150" text-anchor="middle" fill="#555" font-size="10">Hosted Private Cloud</text>
  <text x="730" y="170" text-anchor="middle" fill="#555" font-size="10">Public Cloud</text>

  <!-- Arrows -->
  <line x1="165" y1="115" x2="240" y2="115" stroke="#555" stroke-width="1.5" marker-end="url(#t9)"/>
  <line x1="390" y1="115" x2="465" y2="115" stroke="#555" stroke-width="1.5" marker-end="url(#t9)"/>
  <line x1="595" y1="115" x2="660" y2="115" stroke="#555" stroke-width="1.5" marker-end="url(#t9)"/>

  <text x="200" y="105" text-anchor="middle" fill="#555" font-size="9">VXC</text>
  <text x="428" y="105" text-anchor="middle" fill="#555" font-size="9">VXC</text>
  <text x="628" y="105" text-anchor="middle" fill="#555" font-size="9">vRack</text>

  <!-- Title -->
  <text x="410" y="25" text-anchor="middle" font-size="13" font-weight="bold" fill="#333">GCP ↔ Fournisseur ↔ OVHcloud Connect ↔ vRack</text>

  <defs>
    <marker id="t9" markerWidth="8" markerHeight="6" refX="8" refY="3" orient="auto">
      <polygon points="0 0, 8 3, 0 6" fill="#555"/>
    </marker>
  </defs>
</svg>